<?xml version="1.0" encoding="UTF-8" standalone="no"?>
<svg
   xmlns:osb="http://www.openswatchbook.org/uri/2009/osb"
   xmlns:dc="http://purl.org/dc/elements/1.1/"
   xmlns:cc="http://creativecommons.org/ns#"
   xmlns:rdf="http://www.w3.org/1999/02/22-rdf-syntax-ns#"
   xmlns:svg="http://www.w3.org/2000/svg"
   xmlns="http://www.w3.org/2000/svg"
   xmlns:sodipodi="http://sodipodi.sourceforge.net/DTD/sodipodi-0.dtd"
   xmlns:inkscape="http://www.inkscape.org/namespaces/inkscape"
   width="445"
   height="840"
   version="1.1"
   id="svg28"
   sodipodi:docname="logo_alt.svg"
   viewBox="0 0 445 840"
   inkscape:version="0.92.4 (5da689c313, 2019-01-14)"
   inkscape:export-filename="C:\Users\Jason\Documents\NauticalStarship\nautical_starship.png"
   inkscape:export-xdpi="96"
   inkscape:export-ydpi="96">
  <defs
     id="defs32">
    <linearGradient
       id="linearGradient4570"
       osb:paint="solid">
      <stop
         style="stop-color:#ff0000;stop-opacity:1;"
         offset="0"
         id="stop4568" />
    </linearGradient>
  </defs>
  <sodipodi:namedview
     pagecolor="#000000"
     bordercolor="#666666"
     borderopacity="1"
     objecttolerance="10"
     gridtolerance="10"
     guidetolerance="10"
     inkscape:pageopacity="0"
     inkscape:pageshadow="2"
     inkscape:window-width="1600"
     inkscape:window-height="837"
     id="namedview30"
     showgrid="false"
     fit-margin-top="10"
     fit-margin-left="10"
     fit-margin-right="10"
     fit-margin-bottom="10"
     inkscape:zoom="0.7065016"
     inkscape:cx="-18.503236"
     inkscape:cy="421.01968"
     inkscape:window-x="-8"
     inkscape:window-y="-8"
     inkscape:window-maximized="1"
     inkscape:current-layer="svg28"
     inkscape:pagecheckerboard="false"
     showborder="true"
     inkscape:snap-global="false"
     showguides="false" />
  <title
     id="title2">Big Rocket Blast Off</title>
  <metadata
     id="metadata7">image/svg+xml<rdf:RDF>
  <cc:Work
     rdf:about="">
    <dc:format>image/svg+xml</dc:format>
    <dc:type
       rdf:resource="http://purl.org/dc/dcmitype/StillImage" />
    <dc:title>Big Rocket Blast Off</dc:title>
  </cc:Work>
</rdf:RDF>
</metadata>
  <path
     style="fill:#c8c8c8;fill-opacity:1;fill-rule:evenodd;stroke:#000000;stroke-width:20;stroke-linejoin:round;stroke-miterlimit:4"
     inkscape:connector-curvature="0"
     stroke-miterlimit="4"
     id="path3297"
     d="m 132.28935,660.06129 183.20472,-2.18228 C 335.6675,447.03918 401.40749,217.54446 215.64246,22.06795 34.99833,221.90962 100.14375,450.90548 132.28977,660.06172 Z" />
  <path
     style="fill:#1ed5ff;fill-opacity:1;fill-rule:evenodd;stroke:#000000;stroke-width:25;stroke-linejoin:round;stroke-miterlimit:4;stroke-dasharray:none;stroke-dashoffset:0;marker-start:none;marker-mid:none;marker-end:none"
     inkscape:connector-curvature="0"
     stroke-miterlimit="4"
     d="m 279.01601,227.94176 c 0.79108,33.05496 -25.3586,60.18421 -58.40661,60.59457 -33.04812,0.41043 -60.48014,-26.05313 -61.2712,-59.10823 -0.79095,-33.05492 25.35865,-60.18416 58.40672,-60.59458 33.04806,-0.41044 60.48009,26.05319 61.27109,59.10824 z"
     id="windowColor" />
  <path
     style="fill:#e01100;fill-rule:evenodd;stroke:#000000;stroke-width:20;stroke-linejoin:round;stroke-miterlimit:4;fill-opacity:1"
     inkscape:connector-curvature="0"
     stroke-miterlimit="4"
     id="path3307"
     d="M 132.30085,661.60948 80.29258,763.49693 C 46.96107,698.39088 8.8428404,609.49586 23.17844,553.08172 c 9.41892,-37.06614 77.79291,-81.22136 77.79291,-81.22136 z" />
  <path
     style="fill:#e01100;fill-rule:evenodd;stroke:#000000;stroke-width:20;stroke-linejoin:round;stroke-miterlimit:4;fill-opacity:1"
     inkscape:connector-curvature="0"
     stroke-miterlimit="4"
     d="m 315.4376,652.33711 54.63123,100.61701 C 401.7038,687.0742 437.50791,597.29864 421.71568,541.24327 411.33945,504.41313 341.84287,461.90031 341.84287,461.90031 Z"
     id="path3309" />
  <path
     stroke-linecap="null"
     d="m 146.95908,662.48129 c 0,1.50963 -24.63733,113.22131 -24.63733,114.7309 0,1.50963 64.67305,-39.25003 64.67305,-39.25003 0,0 32.33647,72.4616 32.33647,72.4616 0,0 44.65518,-72.4616 44.65518,-72.4616 0,0 78.53148,75.48084 78.53148,69.4424 0,-6.03851 -35.41617,-170.58676 -36.956,-152.47136 -1.53985,18.1154 -158.60285,7.54808 -158.60285,7.54809 z"
     id="svg_12"
     inkscape:connector-curvature="0"
     style="fill:#ff9400;fill-opacity:1;stroke:#000000;stroke-width:19.34119225;stroke-linejoin:round;stroke-miterlimit:4;stroke-dasharray:none" />
</svg>
